<svg width="26" height="26" viewBox="0 0 26 26" fill="none" xmlns="http://www.w3.org/2000/svg">
<path fill-rule="evenodd" clip-rule="evenodd" d="M13 23.8334C7.01999 23.8334 2.16666 18.9909 2.16666 13.0001C2.16666 7.02008 7.01999 2.16675 13 2.16675C18.9908 2.16675 23.8333 7.02008 23.8333 13.0001C23.8333 18.9909 18.9908 23.8334 13 23.8334ZM16.4558 17.0192C16.5858 17.0951 16.7267 17.1384 16.8783 17.1384C17.1492 17.1384 17.42 16.9976 17.5717 16.7376C17.7992 16.3584 17.68 15.8601 17.29 15.6217L13.4333 13.3251V8.32008C13.4333 7.86508 13.065 7.50758 12.6208 7.50758C12.1767 7.50758 11.8083 7.86508 11.8083 8.32008V13.7909C11.8083 14.0726 11.96 14.3326 12.2092 14.4842L16.4558 17.0192Z" fill="#AB94FF"/>
</svg>
